<?xml version="1.0" standalone="no"?>
<!DOCTYPE svg PUBLIC "-//W3C//DTD SVG 20010904//EN"
 "http://www.w3.org/TR/2001/REC-SVG-20010904/DTD/svg10.dtd">
<svg version="1.0" xmlns="http://www.w3.org/2000/svg"
 width="1477.000000pt" height="1477.000000pt" viewBox="0 0 1477.000000 1477.000000"
 preserveAspectRatio="xMidYMid meet">
<g transform="translate(0.000000,1477.000000) scale(0.100000,-0.100000)"
fill="currentColor" stroke="none">
<path d="M5926 14725 c16 -25 38 -32 48 -17 3 5 -10 16 -30 25 l-34 17 16 -25z"/>
<path d="M5997 14699 c7 -7 15 -10 18 -7 3 3 -2 9 -12 12 -14 6 -15 5 -6 -5z"/>
<path d="M5965 14670 c10 -11 20 -18 23 -16 5 6 -23 36 -34 36 -4 0 1 -9 11
-20z"/>
<path d="M6030 14686 c0 -3 37 -29 83 -59 297 -194 797 -743 1127 -1237 197
-297 379 -614 537 -942 31 -65 60 -115 64 -112 5 3 7 -1 4 -8 -2 -7 4 -31 15
-53 11 -22 18 -32 15 -22 -2 9 0 17 5 17 6 0 10 7 10 15 0 8 7 15 16 15 11 0
15 6 11 20 -3 11 0 20 6 20 7 0 6 4 -3 10 -12 7 -12 12 4 29 10 11 22 18 26
16 8 -5 59 31 72 49 4 6 10 7 14 4 4 -4 19 1 34 12 16 11 35 20 44 20 9 0 16
5 16 11 0 5 -6 7 -12 3 -9 -5 -9 -2 1 9 7 9 20 17 28 17 8 0 29 11 48 25 18
14 43 28 56 30 12 3 26 10 31 17 5 9 8 5 8 -11 0 -16 4 -21 14 -18 8 3 17 1
20 -6 2 -7 5 -4 5 5 1 12 6 15 17 11 10 -3 20 0 25 9 5 8 19 15 31 14 13 -1
29 4 36 11 17 16 15 52 -3 59 -8 4 -15 12 -15 19 0 7 -37 64 -81 127 -239 333
-516 647 -784 887 -417 374 -870 679 -1333 898 -63 29 -131 62 -153 73 -21 11
-39 18 -39 16z"/>
<path d="M6000 14646 c0 -9 5 -16 10 -16 6 0 10 -8 8 -17 -2 -11 2 -17 10 -15
8 1 11 -2 7 -8 -6 -10 55 -114 63 -106 2 3 -9 24 -26 48 -40 59 -31 77 19 37
61 -48 46 -27 -26 36 -42 36 -65 51 -65 41z"/>
<path d="M6120 14440 c6 -11 13 -20 16 -20 2 0 0 9 -6 20 -6 11 -13 20 -16 20
-2 0 0 -9 6 -20z"/>
<path d="M8089 12433 c-13 -16 -12 -17 4 -4 16 13 21 21 13 21 -2 0 -10 -8
-17 -17z"/>
<path d="M7970 12360 c0 -5 5 -10 11 -10 5 0 7 5 4 10 -3 6 -8 10 -11 10 -2 0
-4 -4 -4 -10z"/>
<path d="M6894 11445 c0 -66 1 -92 3 -57 2 34 2 88 0 120 -2 31 -3 3 -3 -63z"/>
<path d="M10668 10556 c-4 -39 -5 -72 -3 -75 12 -11 16 11 13 75 l-3 69 -7
-69z"/>
<path d="M10683 10325 c0 -44 2 -61 4 -37 2 23 2 59 0 80 -2 20 -4 1 -4 -43z"/>
<path d="M10635 10320 c-4 -39 -5 -73 -2 -76 2 -3 8 27 11 67 4 39 5 73 3 76
-3 2 -8 -28 -12 -67z"/>
<path d="M10612 10136 c-7 -54 -11 -101 -8 -103 6 -6 28 163 24 184 -2 10 -9
-27 -16 -81z"/>
<path d="M10653 10218 c-1 -7 -2 -43 -3 -80 -2 -42 -7 -68 -14 -69 -6 0 -1 -4
12 -9 13 -6 22 -17 20 -26 -2 -9 2 -19 9 -21 8 -3 11 11 9 47 -1 28 2 53 6 56
4 3 7 31 6 62 l-2 57 -3 -52 c-4 -52 -15 -68 -27 -38 -3 8 -2 15 2 15 5 0 6
16 4 35 -4 33 -18 49 -19 23z"/>
<path d="M10257 10062 c-325 -450 -515 -815 -777 -1482 -66 -170 -245 -549
-321 -680 -89 -155 -139 -237 -220 -357 -73 -107 -93 -130 -109 -126 -11 3
-25 12 -31 19 -10 12 -24 -8 -78 -108 -113 -208 -153 -281 -178 -321 -13 -21
-21 -43 -17 -50 4 -7 3 -9 -1 -4 -12 10 -87 -111 -79 -126 4 -7 3 -9 -1 -4
-12 10 -44 -43 -37 -61 3 -10 1 -13 -6 -8 -7 4 -55 -60 -126 -166 -63 -95
-180 -265 -260 -378 -523 -741 -706 -1030 -907 -1430 -292 -582 -441 -1137
-495 -1840 -40 -531 50 -1062 245 -1455 117 -236 242 -410 429 -598 180 -183
328 -292 516 -383 119 -58 151 -67 122 -35 -13 15 -15 31 -10 92 8 98 29 164
62 190 30 23 63 23 203 0 l77 -13 135 45 c203 69 374 162 493 270 28 25 75 56
105 67 205 81 547 291 789 486 262 212 583 550 813 859 540 723 899 1608 1016
2505 75 572 48 1128 -85 1748 -47 219 -104 411 -230 778 -152 444 -247 731
-289 874 -49 166 -139 527 -155 618 -7 39 -16 72 -19 72 -4 0 -7 17 -7 38 0
20 -4 46 -8 57 -5 11 -8 33 -7 49 2 17 -1 26 -8 22 -6 -4 -8 7 -5 31 4 26 3
34 -4 25 -13 -19 -25 47 -16 93 3 19 2 35 -3 35 -5 0 -7 19 -6 43 2 33 1 38
-7 22 -7 -15 -9 -6 -6 35 4 39 3 46 -3 25 -10 -39 -19 -18 -24 60 -4 63 -9 84
-26 125 l-11 25 2 -30 c2 -51 -2 -75 -12 -75 -5 0 -7 8 -5 18 3 9 -2 2 -10
-16 -11 -23 -21 -32 -31 -28 -9 3 -12 2 -9 -5 4 -5 1 -16 -5 -24 -7 -8 -10
-15 -7 -15 3 0 1 -13 -4 -30 -6 -16 -14 -28 -18 -25 -4 2 -8 -2 -8 -10 0 -13
4 -13 21 -2 22 14 56 12 56 -3 0 -16 -21 -22 -34 -11 -20 17 -43 -13 -26 -34
10 -12 9 -15 -4 -15 -10 0 -14 -4 -11 -10 3 -5 2 -10 -4 -10 -5 0 -14 -12 -19
-27 -9 -24 -11 -18 -13 42 -2 69 -2 68 -11 -35 -5 -58 -7 -262 -5 -455 6 -397
12 -459 96 -920 114 -629 142 -933 142 -1530 0 -724 -55 -1223 -197 -1790
-170 -679 -401 -1187 -750 -1651 -134 -178 -238 -301 -538 -634 -122 -134
-254 -283 -295 -330 -83 -96 -98 -112 -86 -91 5 9 4 12 -3 7 -7 -4 -12 -15
-12 -25 0 -27 -11 -33 -26 -13 -13 16 -13 16 -14 -1 0 -10 -4 -15 -10 -12 -5
3 -10 1 -10 -4 0 -6 -6 -11 -13 -11 -7 0 -30 -9 -51 -20 -46 -23 -54 -20 -50
17 2 16 1 20 -2 11 -3 -10 -10 -18 -15 -18 -9 0 -4 158 6 210 3 14 7 53 10 88
3 35 8 69 12 75 4 7 8 28 9 48 0 20 4 41 8 47 14 23 33 113 25 118 -5 3 -9 11
-9 17 0 8 3 8 9 -1 12 -20 18 3 15 56 -1 27 3 45 10 48 12 5 16 17 17 57 0 9
4 17 9 17 4 0 6 6 3 14 -3 7 1 20 8 27 18 19 38 66 38 90 0 11 4 17 10 14 9 -6
19 11 35 60 5 16 8 17 15 5 6 -8 10 -12 10 -8 0 5 34 135 75 289 199 745 261
1608 1016 2505 75 572 48 1128 -85 1748 -47 219 -104 411 -230 778 -152 444
-247 731 -289 874 -49 166 -139 527 -155 618 -7 39 -16 72 -19 72 -4 0 -7 17
-7 38 0 20 -4 46 -8 57 -5 11 -8 33 -7 49 2 17 -1 26 -8 22 -6 -4 -8 7 -5 31
4 26 3 34 -4 25 -13 -19 -25 47 -16 93 3 19 2 35 -3 35 -5 0 -7 19 -6 43 2 33
1 38 -7 22 -7 -15 -9 -6 -6 35 4 39 3 46 -3 25 -10 -39 -19 -18 -24 60 -4 63
-9 84 -26 125 l-11 25 2 -30 c2 -51 -2 -75 -12 -75 -5 0 -7 8 -5 18 3 9 -2 2
-10 -16 -11 -23 -21 -32 -31 -28 -9 3 -12 2 -9 -5 4 -5 1 -16 -5 -24 -7 -8
-10 -15 -7 -15 3 0 1 -13 -4 -30 -6 -16 -14 -28 -18 -25 -4 2 -8 -2 -8 -10
0 -13 4 -13 21 -2 22 14 56 12 56 -3 0 -16 -21 -22 -34 -11 -20 17 -43 -13
-26 -34 10 -12 9 -15 -4 -15 -10 0 -14 -4 -11 -10 3 -5 2 -10 -4 -10 -5 0
-14 -12 -19 -27 -9 -24 -11 -18 -13 42 -2 69 -2 68 -11 -35 -5 -58 -7 -262
-5 -455 6 -397 12 -459 96 -920 114 -629 142 -933 142 -1530 0 -724 -55 -1223
-197 -1790 -170 -679 -401 -1187 -750 -1651 -134 -178 -238 -301 -538 -634
-122 -134 -254 -283 -295 -330 -83 -96 -98 -112 -86 -91 5 9 4 12 -3 7 -7 -4
-12 -15 -12 -25 0 -27 -11 -33 -26 -13 -13 16 -13 16 -14 -1 0 -10 -4 -15
-10 -12 -5 3 -10 1 -10 -4 0 -6 -6 -11 -13 -11 -7 0 -30 -9 -51 -20 -46 -23
-54 -20 -50 17 2 16 1 20 -2 11 -3 -10 -10 -18 -15 -18 -9 0 -4 158 6 210
3 14 7 53 10 88 3 35 8 69 12 75 4 7 8 28 9 48 0 20 4 41 8 47 14 23 33 113
25 118 -5 3 -9 11 -9 17 0 8 3 8 9 -1 12 -20 18 3 15 56 -1 27 3 45 10 48
12 5 16 17 17 57 0 9 4 17 9 17 4 0 6 6 3 14 -3 7 1 20 8 27 18 19 38 66 38
90 0 11 4 17 10 14 9 -6 19 11 35 60 5 16 8 17 15 5 6 -8 10 -12 10 -8 0 5
34 135 75 289 199 745 261 919 565 1589 132 291 233 541 310 765 271 793
345 1360 249 1900 -23 128 -43 205 -109 410 -100 312 -117 504 -79 890 34 353
140 774 285 1134 28 71 31 85 19 97 -11 12 -18 7 -48 -34z m386 -487 c-3 -9
-8 -14 -10 -11 -3 3 -2 9 2 15 9 16 15 13 8 -4z m-925 -687 c79 -203 145
-468 174 -698 22 -174 16 -602 -10 -797 -70 -518 -207 -884 -500 -1333
-255 -391 -421 -592 -982 -1190 -85 -91 -144 -156 -131 -145 13 11 47 44
75 73 28 30 52 49 54 43 4 -12 28 -15 35 -3 2 4 2 2 1 -5 -2 -6 4 -17 11 -23
12 -10 16 -9 21 4 3 9 11 13 17 9 6 -3 7 -1 3 5 -4 7 -14 12 -22 12 -8 0
-12 4 -9 10 4 6 17 4 36 -5 30 -16 62 -9 82 19 5 6 5 0 1 -14 -6 -22 -5 -23
10 -11 13 11 16 11 16 0 0 -18 166 -24 176 -7 5 8 2 9 -9 5 -10 -4 -17 -2 -17
5 0 7 -4 7 -14 -1 -11 -9 -16 -9 -22 0 -4 7 -3 9 4 5 6 -3 13 -2 17 3 5 9 35
9 75 -1 9 -2 15 4 14 13 -1 18 27 22 38 5 5 -8 17 -6 39 7 19 11 28 13 21 4
-9 -10 -4 -13 26 -14 34 -1 35 0 17 13 -10 8 -17 14 -14 15 44 6 76 5 86 -3 8
-6 18 -3 32 11 13 13 21 16 21 9 0 -10 3 -9 9 1 5 7 14 10 20 7 14 -9 -15 -51
-285 -416 -116 -157 -242 -330 -281 -385 -221 -311 -432 -693 -568 -1024 -32
-79 -61 -139 -63 -132 -2 6 -9 8 -15 5 -7 -3 -1 3 12 14 21 17 22 21 9 33 -14
12 -13 15 1 27 9 7 10 11 4 7 -8 -4 -13 0 -13 9 0 8 -9 21 -20 29 -11 8 -17
17 -14 20 3 3 -9 10 -27 16 -19 5 -28 10 -20 10 11 1 10 5 -5 16 -19 14 -18
15 6 35 18 14 19 18 6 14 -15 -6 -17 -3 -11 15 6 21 5 21 -15 9 -18 -11 -23
-11 -34 5 -7 9 -21 17 -30 17 -9 0 -16 5 -16 11 0 5 4 8 9 5 14 -9 21 20 8 33
-7 7 -14 7 -23 0 -7 -6 -23 -9 -36 -6 -20 4 -20 4 5 6 15 0 27 4 27 7 0 12
-51 54 -66 54 -7 0 -14 5 -14 10 0 6 -6 10 -14 10 -7 0 -19 7 -26 15 -7 9 -19
14 -26 11 -8 -3 -13 0 -11 6 2 9 -17 17 -49 20 -6 1 -11 8 -10 16 1 9 -10 16
-27 19 -16 2 -26 0 -23 -5 3 -5 0 -9 -7 -9 -7 0 -13 8 -13 18 0 10 6 15 15 11
9 -3 12 -1 7 -3 -4 -7 -13 -12 -19 -12 -7 0 -27 -14 -45 -31 -29 -30 -44 -34
-99 -27 -19 2 -26 -3 -31 -22 l-7 -25 -4 25 c-3 14 -10 -41 -17 -123 -35 -400
-97 -664 -277 -1182 -190 -545 -234 -689 -319 -1051 -102 -429 -143 -728 -169
-1224 0 -8 -6 -20 -13 -27 -10 -10 -14 -9 -20 5 -4 9 -6 20 -6 24 1 5 -4 8 -12
8 -8 0 -16 7 -20 15 -3 8 -12 15 -19 15 -8 0 -20 7 -27 15 -7 8 -16 12 -21 9
-5 -3 -9 -1 -9 5 0 6 -18 15 -40 21 -21 6 -42 14 -45 16 -4 3 -9 -4 -12 -15
-3 -11 -1 -20 3 -20 4 0 6 -9 3 -20 -6 -22 -18 -26 -29 -8 -5 8 -10 6 -15 -8
-6 -15 -8 -15 -8 -3 -1 9 -10 19 -22 22 -13 4 -18 10 -14 18 6 9 0 10 -20 7
l-27 -6 5 297 c5 315 20 469 73 736 110 560 267 945 727 1780 383 505 616 856
799 1203 41 78 79 142 84 142 4 0 6 -7 2 -15 -3 -8 -1 -15 4 -15 6 0 10 -4 10
-10 0 -5 -8 -6 -17 -3 -16 6 -16 5 -4 -10 13 -17 47 -25 37 -9 -3 5 14 8 38
8 24 -1 39 -4 33 -8 -13 -8 3 -12 36 -8 10 1 24 -4 32 -10 7 -6 17 -10 21 -9
5 1 14 0 19 -1 6 -1 15 -3 20 -4 53 -12 75 -20 75 -28 0 -5 -10 -6 -22 -3 -18
5 -20 4 -8 -4 12 -9 13 -11 1 -11 -8 0 -11 -3 -8 -6 4 -4 18 1 31 10 22 14
25 14 20 1 -4 -10 0 -15 10 -15 9 0 16 -5 16 -11 0 -5 14 -15 30 -20 17 -6
30 -15 30 -20 0 -5 3 -8 8 -8 20 3 32 -2 32 -16 0 -8 5 -15 10 -15 6 0 8 -12
5 -27 -4 -23 -4 -25 4 -8 5 11 8 36 5 55 -3 25 -2 30 4 15 8 -18 9 -18 14 5
3 14 19 86 36 160 109 480 184 1145 194 1727 2 79 6 143 10 143 3 0 24 -46
46 -102z m-898 -1522 c0 -2 -8 -10 -17 -17 -16 -13 -17 -12 -4 4 13 16 21 21
21 13z m-30 -40 c0 -2 -8 -10 -17 -17 -16 -13 -17 -12 -4 4 13 16 21 21 21 13z
m-60 -76 c-17 -22 -34 -40 -37 -40 -2 0 10 18 27 40 17 22 34 40 37 40 2 0
-10 -18 -27 -40z m-40 -53 c0 -2 -12 -14 -27 -28 l-28 -24 24 28 c23 25 31 32
31 24z m-314 -485 c-17 -16 -18 -16 -5 5 7 12 15 20 18 17 3 -2 -3 -12 -13 -22z
m64 -1841 c0 -5 -9 -11 -21 -14 -16 -4 -18 -3 -8 9 13 16 29 19 29 5z m-1300
-761 c0 -5 -2 -10 -4 -10 -3 0 -8 5 -11 10 -3 6 -1 10 4 10 6 0 11 -4 11 -10z
m87 -125 c0 -8 -4 -12 -9 -9 -5 3 -6 10 -3 15 9 13 12 11 12 -6z m149 -510
c-18 -38 -32 -49 -16 -12 6 12 13 30 16 40 4 10 9 16 12 13 2 -3 -3 -21 -12
-41z m69 -53 c-3 -3 -11 0 -18 7 -9 10 -8 11 6 5 10 -3 15 -9 12 -12z m45
3 c-7 -9 -15 -13 -17 -11 -7 7 7 26 19 26 6 0 6 -6 -2 -15z m1362 -1492 c-6
-2 -9 -10 -6 -15 4 -7 2 -8 -5 -4 -13 9 -5 26 12 25 9 0 8 -2 -1 -6z m-132
-201 c0 -5 -7 -17 -15 -28 -14 -18 -14 -17 -4 9 12 27 19 34 19 19z"/>
</g>
</svg>
