<svg xmlns="http://www.w3.org/2000/svg" viewBox="0 0 100 100">
  <g fill="currentColor">
    <!-- Pretzel Main Shape -->
    <path d="M30,35 C30,25 40,20 50,20 C60,20 70,25 70,35 C70,45 60,50 50,50 C40,50 30,45 30,35 M50,50 C60,50 70,55 70,65 C70,75 60,80 50,80 C40,80 30,75 30,65 C30,55 40,50 50,50" 
          stroke="currentColor" 
          stroke-width="6" 
          fill="none"
          stroke-linecap="round"/>
    
    <!-- Pretzel Knots -->
    <circle cx="50" cy="35" r="4" fill="currentColor"/>
    <circle cx="50" cy="65" r="4" fill="currentColor"/>
    
    <!-- Salt Dots -->
    <circle cx="35" cy="30" r="2" fill="currentColor"/>
    <circle cx="65" cy="30" r="2" fill="currentColor"/>
    <circle cx="35" cy="70" r="2" fill="currentColor"/>
    <circle cx="65" cy="70" r="2" fill="currentColor"/>
  </g>
</svg>